<svg id="Capa_1" enable-background="new 0 0 512 512" height="512" viewBox="0 0 512 512" width="512" xmlns="http://www.w3.org/2000/svg"><g><g><path d="m100.435 415.606h343.455v88.894h-343.455z" fill="#bed8fb"/></g><g><path d="m100.435 104.476v361.638h311.13c17.853 0 32.325-14.473 32.325-32.325v-329.313z" fill="#f9f6f6"/></g><g><path d="m417.626 104.476v329.313c0 17.853-14.473 32.325-32.325 32.325h26.264c17.853 0 32.325-14.473 32.325-32.325v-329.313z" fill="#dddaec"/></g><g><path d="m100.435 39.825h343.455v64.65h-343.455z" fill="#ecc373"/></g><g><path d="m417.626 39.825h26.264v64.65h-26.264z" fill="#dab46b"/></g><g><path d="m68.11 433.789c0 17.853 14.472 32.325 32.325 32.325h311.13c-17.853 0-32.325-14.473-32.325-32.325z" fill="#b1e4f9"/></g><g><path d="m161.045 136.801h222.236v32.325h-222.236z" fill="#ffe07d"/></g><g><path d="m443.89 152.27c-4.142 0-7.5 3.358-7.5 7.5v274.019.001c0 13.686-11.134 24.82-24.82 24.82-13.691 0-24.83-11.134-24.83-24.82 0-4.142-3.358-7.5-7.5-7.5h-271.31v-79.05c0-4.142-3.358-7.5-7.5-7.5s-7.5 3.358-7.5 7.5v79.05h-24.82c-4.142 0-7.5 3.358-7.5 7.5 0 19.394 13.94 35.585 32.325 39.103v31.607c0 4.142 3.358 7.5 7.5 7.5h343.455c4.142 0 7.5-3.358 7.5-7.5v-344.73c0-4.142-3.358-7.5-7.5-7.5zm-335.955 344.73v-23.39h188.145c4.142 0 7.5-3.358 7.5-7.5s-3.358-7.5-7.5-7.5h-195.65c-11.073 0-20.476-7.288-23.663-17.32h295.681c1.236 6.458 4.04 12.371 7.996 17.32h-49.364c-4.142 0-7.5 3.358-7.5 7.5s3.358 7.5 7.5 7.5h80.49c9.381 0 18.008-3.268 24.82-8.716v32.106z"/><path d="m451.39 39.825c0-4.142-3.358-7.5-7.5-7.5h-41.706c-3.519-18.385-19.712-32.325-39.107-32.325s-35.588 13.94-39.107 32.325h-12.7c-3.52-18.385-19.712-32.325-39.107-32.325s-35.588 13.94-39.107 32.325h-12.7c-3.52-18.385-19.713-32.325-39.108-32.325s-35.588 13.94-39.107 32.325h-41.706c-4.142 0-7.5 3.358-7.5 7.5l-.005 272.415c0 4.142 3.358 7.5 7.5 7.5s7.5-3.358 7.5-7.5v-200.26h328.46v12.79c0 4.142 3.358 7.5 7.5 7.5s7.5-3.358 7.5-7.5zm-88.313-24.825c11.075 0 20.477 7.292 23.664 17.325h-47.329c3.188-10.033 12.59-17.325 23.665-17.325zm-90.914 0c11.075 0 20.477 7.292 23.664 17.325h-47.329c3.187-10.033 12.589-17.325 23.665-17.325zm-90.915 0c11.075 0 20.477 7.292 23.664 17.325h-47.329c3.188-10.033 12.59-17.325 23.665-17.325zm-73.313 32.325h34.206c3.519 18.385 19.712 32.325 39.107 32.325 4.142 0 7.5-3.358 7.5-7.5s-3.358-7.5-7.5-7.5c-11.075 0-20.477-7.292-23.664-17.325h75.472c3.519 18.385 19.712 32.325 39.107 32.325 4.142 0 7.5-3.358 7.5-7.5s-3.358-7.5-7.5-7.5c-11.075 0-20.477-7.292-23.664-17.325h75.472c3.519 18.385 19.712 32.325 39.107 32.325 4.142 0 7.5-3.358 7.5-7.5s-3.358-7.5-7.5-7.5c-11.075 0-20.477-7.292-23.664-17.325h96.977v49.65h-328.456z"/><path d="m383.28 129.301h-222.235c-4.142 0-7.5 3.358-7.5 7.5v32.325c0 4.142 3.358 7.5 7.5 7.5h222.235c4.142 0 7.5-3.358 7.5-7.5v-32.325c0-4.142-3.358-7.5-7.5-7.5zm-7.5 32.325h-207.235v-17.325h207.235z"/><path d="m396.413 205.063h-183.85c-4.142 0-7.5 3.358-7.5 7.5s3.358 7.5 7.5 7.5h183.85c4.142 0 7.5-3.358 7.5-7.5s-3.358-7.5-7.5-7.5z"/><path d="m212.563 252.388h101.016c4.142 0 7.5-3.358 7.5-7.5s-3.358-7.5-7.5-7.5h-101.016c-4.142 0-7.5 3.358-7.5 7.5s3.358 7.5 7.5 7.5z"/><path d="m142.969 226.079c-3.115 2.73-3.426 7.469-.696 10.583l11.545 13.169c1.43 1.631 3.488 2.556 5.639 2.556.185 0 .371-.007.557-.021 2.349-.175 4.479-1.442 5.753-3.424l20.78-32.325c2.24-3.484 1.231-8.125-2.253-10.365-3.484-2.239-8.125-1.231-10.365 2.253l-15.396 23.949-4.981-5.682c-2.731-3.112-7.469-3.424-10.583-.693z"/><path d="m396.413 279.815h-183.85c-4.142 0-7.5 3.358-7.5 7.5s3.358 7.5 7.5 7.5h183.85c4.142 0 7.5-3.358 7.5-7.5s-3.358-7.5-7.5-7.5z"/><path d="m212.563 327.14h101.016c4.142 0 7.5-3.358 7.5-7.5s-3.358-7.5-7.5-7.5h-101.016c-4.142 0-7.5 3.358-7.5 7.5s3.358 7.5 7.5 7.5z"/><path d="m142.273 311.415 11.545 13.169c1.43 1.631 3.488 2.556 5.639 2.556.185 0 .371-.007.557-.021 2.349-.175 4.479-1.442 5.753-3.424l20.78-32.325c2.24-3.484 1.231-8.125-2.253-10.365-3.484-2.239-8.125-1.231-10.365 2.253l-15.396 23.949-4.981-5.682c-2.731-3.115-7.469-3.427-10.583-.696-3.115 2.733-3.427 7.471-.696 10.586z"/><path d="m403.913 362.067c0-4.142-3.358-7.5-7.5-7.5h-183.85c-4.142 0-7.5 3.358-7.5 7.5s3.358 7.5 7.5 7.5h183.85c4.142 0 7.5-3.358 7.5-7.5z"/><path d="m212.563 386.892c-4.142 0-7.5 3.358-7.5 7.5s3.358 7.5 7.5 7.5h101.016c4.142 0 7.5-3.358 7.5-7.5s-3.358-7.5-7.5-7.5z"/><path d="m142.273 386.167 11.545 13.169c1.43 1.631 3.488 2.556 5.639 2.556.185 0 .371-.007.557-.021 2.349-.175 4.479-1.442 5.753-3.424l20.78-32.325c2.24-3.484 1.231-8.125-2.253-10.365-3.484-2.239-8.125-1.231-10.365 2.253l-15.396 23.949-4.981-5.682c-2.731-3.115-7.469-3.427-10.583-.696-3.115 2.732-3.427 7.471-.696 10.586z"/></g></g></svg>