<svg id="Layer_1" enable-background="new 0 0 512 512" height="512" viewBox="0 0 512 512" width="512" xmlns="http://www.w3.org/2000/svg"><g><g><g clip-rule="evenodd" fill-rule="evenodd"><path d="m236.525 19.347h38.949c8.504 0 15.478 7.483 15.478 16.639v17.32h-69.903v-17.32c0-9.156 6.972-16.639 15.476-16.639zm-9.637 473.335h58.253c3.203 0 5.811-2.636 5.811-5.839v-129.687h-69.903v129.686c0 3.203 2.636 5.84 5.839 5.84z" fill="#e2d8ec"/><path d="m246.362 19.347h29.112c8.504 0 15.478 7.483 15.478 16.639v17.32h-29.112v-17.32c0-9.156-6.974-16.639-15.478-16.639zm9.638 473.335h29.141c3.203 0 5.811-2.636 5.811-5.839v-129.687h-29.112v129.686c0 3.203-2.637 5.84-5.84 5.84z" fill="#d5c6e4"/><path d="m191.936 48.459h128.128c10.687 0 19.417 8.73 19.417 19.418v19.417h-166.962v-19.417c0-10.688 8.731-19.418 19.417-19.418zm147.545 274.709v19.417c0 10.687-8.73 19.418-19.417 19.418h-128.128c-10.686 0-19.418-8.731-19.418-19.418v-19.417z" fill="#d5c6e4"/><path d="m290.952 48.459h29.112c10.687 0 19.417 8.73 19.417 19.418v19.417h-29.112v-19.417c0-10.688-8.73-19.418-19.417-19.418zm48.529 274.709v19.417c0 10.687-8.73 19.418-19.417 19.418h-29.112c10.687 0 19.417-8.731 19.417-19.418v-19.417z" fill="#c6b4da"/><path d="m36.624 82.447h438.752c16.017 0 29.141 13.096 29.141 29.112v187.344c0 16.016-13.124 29.112-29.141 29.112h-438.752c-16.016 0-29.111-13.097-29.111-29.112v-187.344c0-16.016 13.095-29.112 29.111-29.112z" fill="#cbe2ff"/><path d="m417.151 82.447h29.112v245.568h-29.112z" fill="#9dc6fb"/><path d="m36.624 82.447h29.112v245.568h-29.112c-16.016 0-29.111-13.097-29.111-29.112v-187.344c0-16.016 13.095-29.112 29.111-29.112zm438.752 0h-29.112v245.568h29.112c16.017 0 29.141-13.097 29.141-29.112v-187.344c0-16.016-13.124-29.112-29.141-29.112z" fill="#407093"/><path d="m36.624 82.447h29.112v245.568h-29.112zm438.752 0h-29.112c16.017 0 29.112 13.096 29.112 29.112v187.344c0 16.016-13.096 29.112-29.112 29.112h29.112c16.017 0 29.141-13.097 29.141-29.112v-187.344c0-16.016-13.124-29.112-29.141-29.112z" fill="#365e7d"/><path d="m256 294.056c48.927 0 88.839-39.913 88.839-88.839 0-48.899-39.912-88.811-88.839-88.811-48.926 0-88.811 39.912-88.811 88.811 0 48.926 39.885 88.839 88.811 88.839z" fill="#fff6cf"/><path d="m256 116.406c49.068 0 88.839 39.771 88.839 88.839 0 49.04-39.771 88.811-88.839 88.811-4.96 0-9.808-.425-14.541-1.191 42.123-6.945 74.239-43.54 74.239-87.62 0-44.107-32.116-80.704-74.239-87.648 4.733-.766 9.581-1.191 14.541-1.191z" fill="#fff0af"/></g><path d="m236.157 166.042 59.189 34.186c.851.482 1.615 1.191 2.126 2.098 1.559 2.721.624 6.151-2.069 7.71l-58.792 33.931c-.906.652-2.04 1.049-3.26 1.049-3.146 0-5.669-2.523-5.669-5.669v-68.401c0-.964.255-1.928.766-2.806 1.558-2.722 4.988-3.629 7.709-2.098z" fill="#dd636e"/></g><path d="m99.725 320.532c4.139 0 7.483 3.345 7.483 7.483 0 4.167-3.345 7.512-7.483 7.512h-33.989-29.112c-10.091 0-19.247-4.11-25.88-10.743-6.634-6.634-10.744-15.79-10.744-25.881v-187.344c0-10.091 4.11-19.247 10.744-25.88 6.633-6.634 15.789-10.744 25.88-10.744h29.112 99.299v-7.058c0-7.399 3.005-14.145 7.881-19.021 4.875-4.876 11.622-7.909 19.02-7.909h21.629v-4.961c0-6.52 2.522-12.5 6.576-16.866 4.167-4.479 9.977-7.285 16.384-7.285h38.949c6.435 0 12.218 2.806 16.413 7.285 4.053 4.365 6.576 10.346 6.576 16.866v4.961h21.601c7.427 0 14.145 3.033 19.021 7.909 4.875 4.875 7.908 11.622 7.908 19.021v7.058h31.323c4.139 0 7.512 3.345 7.512 7.512 0 4.139-3.373 7.483-7.512 7.483-101.68 0-203.388 0-305.068 0v230.602zm189.101-115.287-53.661-30.983v61.938zm-57.431-50.429 76.025 43.909c1.134.624 2.126 1.56 2.807 2.778 2.069 3.571.822 8.135-2.75 10.205l-75.459 43.569c-1.219.878-2.721 1.389-4.337 1.389-4.139 0-7.512-3.373-7.512-7.512v-87.847c0-1.275.34-2.552 1.021-3.714 2.07-3.599 6.633-4.818 10.205-2.777zm40.111-29.424c-4.054-.794-6.718-4.706-5.953-8.759.794-4.082 4.706-6.747 8.76-5.953 22.422 4.309 42.066 16.385 56.041 33.336 13.72 16.669 21.969 37.985 21.969 61.23 0 26.589-10.772 50.655-28.204 68.089-17.434 17.433-41.528 28.205-68.118 28.205-26.589 0-50.684-10.772-68.089-28.205-17.434-17.434-28.233-41.5-28.233-68.089 0-23.245 8.249-44.561 21.997-61.23 13.975-16.951 33.619-29.027 56.014-33.336 4.054-.794 7.993 1.871 8.759 5.953.766 4.054-1.871 7.965-5.952 8.759-18.908 3.628-35.49 13.833-47.283 28.12-11.565 14.032-18.539 32.061-18.539 51.733 0 22.45 9.128 42.775 23.84 57.487s35.037 23.811 57.487 23.811c22.451 0 42.804-9.099 57.516-23.811s23.811-35.037 23.811-57.487c0-19.673-6.945-37.701-18.538-51.733-11.767-14.287-28.35-24.492-47.285-28.12zm133.287 130.395c0-4.139 3.345-7.512 7.512-7.512 4.139 0 7.483 3.373 7.483 7.512v38.269c0 4.138-3.345 7.483-7.483 7.483h-38.297c-4.139 0-7.483-3.345-7.483-7.483 0-4.139 3.345-7.512 7.483-7.512h30.785zm14.995-101.113c0 4.138-3.345 7.512-7.483 7.512-4.167 0-7.512-3.374-7.512-7.512v-30.756h-30.785c-4.139 0-7.483-3.373-7.483-7.512s3.345-7.483 7.483-7.483h38.297c4.139 0 7.483 3.345 7.483 7.483zm-327.575 101.113c0-4.139 3.373-7.512 7.512-7.512s7.483 3.373 7.483 7.512v30.756h30.784c4.139 0 7.512 3.374 7.512 7.512s-3.373 7.483-7.512 7.483h-38.267c-4.139 0-7.512-3.345-7.512-7.483zm14.995-101.113c0 4.138-3.345 7.512-7.483 7.512-4.139 0-7.512-3.374-7.512-7.512v-38.269c0-4.139 3.373-7.483 7.512-7.483h38.268c4.139 0 7.512 3.345 7.512 7.483 0 4.139-3.373 7.512-7.512 7.512h-30.784v30.757zm176.232 289.648c0-4.139 3.373-7.512 7.512-7.512s7.512 3.373 7.512 7.512v48.36c0 4.139-3.373 7.483-7.512 7.483h-69.903c-4.139 0-7.483-3.345-7.483-7.483v-123.167h-21.629c-7.398 0-14.145-3.033-19.02-7.909-4.876-4.875-7.881-11.594-7.881-19.021v-7.058h-31.352c-4.139 0-7.483-3.345-7.483-7.512 0-4.139 3.345-7.483 7.483-7.483h305.068v-230.602h-26.447c-4.167 0-7.512-3.345-7.512-7.483 0-4.168 3.345-7.512 7.512-7.512h33.959 29.112c10.092 0 19.248 4.11 25.881 10.744 6.633 6.633 10.743 15.788 10.743 25.88v187.344c0 10.091-4.11 19.248-10.743 25.881s-15.789 10.743-25.881 10.743h-128.383v7.058c0 7.427-3.033 14.146-7.908 19.021-4.876 4.876-11.594 7.909-19.021 7.909h-21.601v40.819c0 4.167-3.373 7.512-7.512 7.512s-7.512-3.345-7.512-7.512v-40.819h-54.88v115.655h54.88v-40.848zm-54.879-403.375h54.88v-4.961c0-2.636-.964-4.989-2.523-6.662-1.417-1.53-3.345-2.494-5.442-2.494h-38.949c-2.069 0-4.024.964-5.442 2.494-1.559 1.673-2.522 4.025-2.522 6.662v4.961zm-48.531 33.988h151.968v-7.058c0-3.26-1.36-6.236-3.515-8.419-2.154-2.154-5.131-3.487-8.419-3.487-42.691 0-85.409 0-128.128 0-3.26 0-6.236 1.333-8.419 3.487-2.154 2.183-3.487 5.159-3.487 8.419zm151.968 267.65v-7.058h-151.968v7.058c0 3.26 1.333 6.236 3.487 8.419 2.183 2.154 5.159 3.487 8.419 3.487h128.128c3.288 0 6.265-1.333 8.419-3.487 2.155-2.183 3.515-5.159 3.515-8.419zm135.895-201.914c0-4.139 3.345-7.483 7.483-7.483 4.167 0 7.512 3.345 7.512 7.483v25.739c0 4.139-3.345 7.483-7.512 7.483-4.139 0-7.483-3.345-7.483-7.483zm0 103.381c0-4.139 3.345-7.483 7.483-7.483 4.167 0 7.512 3.345 7.512 7.483v25.739c0 4.139-3.345 7.484-7.512 7.484-4.139 0-7.483-3.345-7.483-7.484zm-438.781-64.546c0-4.139 3.373-7.512 7.512-7.512s7.513 3.373 7.513 7.512v51.45c0 4.138-3.374 7.512-7.513 7.512s-7.512-3.374-7.512-7.512zm424.664-89.576v230.602h21.6c5.953 0 11.367-2.438 15.279-6.35 3.912-3.94 6.35-9.326 6.35-15.279v-187.344c0-5.953-2.438-11.339-6.35-15.279-3.912-3.912-9.326-6.35-15.279-6.35zm-395.523 0h-21.629c-5.925 0-11.339 2.438-15.25 6.35-3.94 3.94-6.378 9.326-6.378 15.279v187.344c0 5.953 2.437 11.338 6.378 15.279 3.911 3.912 9.325 6.35 15.25 6.35h21.629z"/></g></svg>